<svg width="141.24" height="43.02" viewBox="0 0 200 40" xmlns="http://www.w3.org/2000/svg"><g id="svgGroup" stroke-linecap="round" fill-rule="evenodd" font-size="9pt" stroke="#000" stroke-width="0.25mm" fill="#503421" style="stroke:#000;stroke-width:0.25mm;fill:#503421"><path d="M 84.315 9.955 L 79.75 10.56 Q 79.556 7.764 78.608 5.873 A 7.348 7.348 0 0 0 77.688 4.455 A 5.828 5.828 0 0 0 73.431 2.329 A 8.066 8.066 0 0 0 72.875 2.31 Q 69.63 2.31 67.898 3.878 Q 66.165 5.445 66.165 8.305 A 7.931 7.931 0 0 0 66.302 9.829 Q 66.603 11.366 67.568 12.293 A 5.69 5.69 0 0 0 68.645 13.085 Q 70.09 13.929 72.6 14.575 L 75.625 15.345 A 25.77 25.77 0 0 1 78.152 16.188 Q 80.83 17.251 82.283 18.69 A 7.087 7.087 0 0 1 82.555 18.975 A 7.458 7.458 0 0 1 84.172 21.968 Q 84.59 23.426 84.59 25.245 A 11.601 11.601 0 0 1 84.226 28.237 A 8.065 8.065 0 0 1 81.51 32.505 Q 79.022 34.549 74.811 34.942 A 22.641 22.641 0 0 1 72.71 35.035 A 19.448 19.448 0 0 1 69.557 34.796 Q 67.861 34.517 66.507 33.912 A 8.851 8.851 0 0 1 64.378 32.588 Q 61.839 30.436 61.065 26.265 A 18.567 18.567 0 0 1 60.885 25.08 L 65.34 24.42 A 15.875 15.875 0 0 0 65.804 26.902 Q 66.416 29.109 67.65 30.525 A 6.148 6.148 0 0 0 71.792 32.623 A 8.679 8.679 0 0 0 72.71 32.67 A 12.317 12.317 0 0 0 75.386 32.406 Q 79.86 31.406 79.86 26.62 A 8.874 8.874 0 0 0 79.789 25.457 Q 79.712 24.878 79.553 24.396 A 4.097 4.097 0 0 0 79.255 23.705 Q 78.65 22.605 77.248 21.863 A 10.165 10.165 0 0 0 76.245 21.407 Q 75.177 20.983 73.659 20.589 A 37.213 37.213 0 0 0 73.15 20.46 L 70.345 19.745 A 23.802 23.802 0 0 1 67.824 18.953 Q 65.178 17.944 63.777 16.504 A 6.484 6.484 0 0 1 63.497 16.198 A 7.506 7.506 0 0 1 62.048 13.491 Q 61.703 12.372 61.595 11.022 A 16.058 16.058 0 0 1 61.545 9.735 Q 61.545 5.654 63.646 3.253 A 7.716 7.716 0 0 1 64.433 2.475 Q 67.32 0 72.875 0 Q 76.557 0 79.04 1.242 A 8.566 8.566 0 0 1 80.85 2.448 A 9.153 9.153 0 0 1 83.159 5.637 Q 83.732 6.907 84.064 8.472 A 19.054 19.054 0 0 1 84.315 9.955 Z M 54.89 0.66 L 54.89 23.21 A 16.432 16.432 0 0 1 54.649 26.109 Q 54.354 27.755 53.697 29.085 A 9.048 9.048 0 0 1 53.103 30.113 A 10.694 10.694 0 0 1 50.796 32.627 A 9.464 9.464 0 0 1 48.592 33.908 Q 45.87 35.035 42.845 35.035 A 17.949 17.949 0 0 1 38.725 34.586 A 13.014 13.014 0 0 1 33.797 32.313 A 8.371 8.371 0 0 1 30.947 28.278 Q 30.442 26.832 30.276 25.042 A 19.867 19.867 0 0 1 30.195 23.21 L 30.195 0.66 L 35.805 0.66 L 35.805 23.21 A 17.687 17.687 0 0 0 35.964 25.669 Q 36.14 26.919 36.511 27.92 A 6.524 6.524 0 0 0 37.812 30.113 A 6.64 6.64 0 0 0 41.854 32.189 A 9.45 9.45 0 0 0 43.23 32.285 A 9.209 9.209 0 0 0 46.528 31.711 A 8.349 8.349 0 0 0 49.197 30.058 A 6.925 6.925 0 0 0 51.089 27.07 Q 51.47 25.934 51.59 24.541 A 15.53 15.53 0 0 0 51.645 23.21 L 51.645 0.66 L 54.89 0.66 Z M 109.835 22.165 L 114.895 34.375 L 108.845 34.375 L 104.115 22.66 Q 103.457 21.07 102.499 20.546 A 2.174 2.174 0 0 0 102.493 20.543 A 3.423 3.423 0 0 0 101.761 20.259 Q 101.011 20.054 99.917 20.025 A 13.935 13.935 0 0 0 99.55 20.02 L 96.965 20.02 L 96.965 34.375 L 91.355 34.375 L 91.355 0.66 L 102.63 0.66 A 19.212 19.212 0 0 1 105.563 0.868 Q 107.068 1.101 108.255 1.596 A 7.038 7.038 0 0 1 111.045 3.603 A 10.596 10.596 0 0 1 113.425 9.668 A 13.663 13.663 0 0 1 113.465 10.725 A 11.097 11.097 0 0 1 113.004 13.973 A 9.675 9.675 0 0 1 112.008 16.198 Q 110.68 18.378 107.594 19.348 A 13.213 13.213 0 0 1 106.975 19.525 Q 108.955 20.24 109.835 22.165 Z M 26.455 0.66 L 16.06 22.715 L 16.005 22.77 L 16.005 34.375 L 10.395 34.375 L 10.395 22.715 L 0 0.66 L 5.665 0.66 L 14.3 19.635 L 23.155 0.66 L 26.455 0.66 Z M 140.91 34.375 L 137.665 24.31 L 124.245 24.31 L 121.055 34.375 L 117.865 34.375 L 128.755 0.66 L 135.465 0.66 L 146.355 34.375 L 140.91 34.375 Z M 125.125 21.615 L 136.785 21.615 L 130.955 3.3 L 125.125 21.615 Z M 96.965 17.985 L 102.025 17.985 A 6.56 6.56 0 0 0 103.808 17.757 A 4.555 4.555 0 0 0 106.425 15.868 A 8.23 8.23 0 0 0 107.699 12.623 A 11.116 11.116 0 0 0 107.855 10.725 A 13.126 13.126 0 0 0 107.619 8.172 Q 107.285 6.486 106.478 5.146 A 8.369 8.369 0 0 0 106.425 5.06 A 4.628 4.628 0 0 0 103.085 2.832 A 6.642 6.642 0 0 0 102.025 2.75 L 96.965 2.75 L 96.965 17.985 Z" vector-effect="non-scaling-stroke"/></g></svg>
